<svg width="401" height="49" viewBox="0 0 401 49" fill="none" xmlns="http://www.w3.org/2000/svg">
<path d="M57.8077 2.10091H47.1615V47.5685H81.8848V38.2825H57.8077V2.10091Z" fill="#323927"/>
<path d="M97.9332 28.7951H120.754V19.7016H97.9332V11.3257H124.391V2.10091H87.6208V47.5685H125.111V38.2825H97.9332V28.7951Z" fill="#323927"/>
<path d="M174.389 2.10091H162.557L152.368 16.472L142.389 2.10091H129.485L145.894 24.3752L128.431 47.5685H140.334L151.841 31.7533L163.084 47.5685H175.848L158.323 23.8501L174.389 2.10091Z" fill="#323927"/>
<path d="M191.58 2.10091H180.934V47.5685H215.657V38.2825H191.58V2.10091Z" fill="#323927"/>
<path d="M232.039 2.10091H221.393V47.5685H232.039V2.10091Z" fill="#323927"/>
<path d="M260.148 37.3547L248.044 2.10091H236.607L253.138 47.5685H266.762L283.496 2.10091H272.446L260.148 37.3547Z" fill="#323927"/>
<path d="M298.71 2.10091H288.064V47.5685H298.71V2.10091Z" fill="#323927"/>
<path d="M337.588 32.0859L320.134 2.10091H307.107V47.5685H316.823V14.8879L335.875 47.5685H347.444V2.10091H337.588V32.0859Z" fill="#323927"/>
<path d="M377.318 23.8501V32.1559H388.896C387.508 36.5058 382.94 39.0089 377.45 39.0089C369.782 39.0089 364.221 33.3462 364.221 24.8391C364.221 16.332 369.975 10.608 377.38 10.608C383.599 10.608 388.096 14.2314 389.879 19.8328H400.728C398.479 8.49876 389.159 1.12067 377.38 1.12067C364.019 1.12067 353.443 10.9406 353.443 24.9091C353.443 38.8776 363.958 48.5663 376.791 48.5663C383.871 48.5663 389.352 45.8619 392.664 41.2495V47.5773H401V23.8589H377.327L377.318 23.8501Z" fill="#323927"/>
<path d="M0 19.334V47.5685H10.6463V30.7818C20.4668 29.8716 30.2961 23.4125 40.1167 28.7863V19.334C26.7474 12.0259 13.3693 26.6421 0 19.334Z" fill="#323927"/>
<path d="M0 2.10966V11.562C13.3693 18.8701 26.7474 4.25395 40.1167 11.562V2.10966C26.7474 -5.19842 13.3693 9.41774 0 2.10966Z" fill="#A3BF5B"/>
</svg>
